<svg width="289" height="45" viewBox="0 0 289 45" fill="none" xmlns="http://www.w3.org/2000/svg">
<g clip-path="url(#clip0_1_17)">
<path fill-rule="evenodd" clip-rule="evenodd" d="M13.7027 35.0876H33.1718H36.18L33.54 27.7974H30.1148H16.7717H11.94L9.36 35.0876H13.7027ZM23.4563 11.9191L25.38 7.34943H21.54L23.4563 11.9191ZM70.62 43.978H79.38V25.7823C79.38 20.9222 78.02 17.3462 75.3 15.0545C72.58 12.7627 68.76 11.6168 63.84 11.6168C61.28 11.6168 58.76 11.9527 56.28 12.6244C53.8 13.2961 51.68 14.2445 49.92 15.4694L53.28 21.9297C54.44 21.0209 55.85 20.2998 57.51 19.7664C59.17 19.233 60.86 18.9663 62.58 18.9663C65.1 18.9663 66.97 19.5194 68.19 20.6258C69.41 21.7322 70.02 23.2732 70.02 25.2488H62.58C59.3 25.2488 56.64 25.6538 54.6 26.4639C52.56 27.2739 51.07 28.3901 50.13 29.8126C49.19 31.2351 48.72 32.8946 48.72 34.7912C48.72 36.6088 49.2 38.2486 50.16 39.7106C51.12 41.1726 52.5 42.3284 54.3 43.1779C56.1 44.0274 58.26 44.4522 60.78 44.4522C63.62 44.4522 65.94 43.9188 67.74 42.8519C68.9553 42.1316 69.9153 41.1862 70.62 40.0157V43.978ZM70.02 33.9022V30.6424H63.6C61.4 30.6424 59.89 30.998 59.07 31.7092C58.25 32.4205 57.84 33.3095 57.84 34.3764C57.84 35.5617 58.31 36.5002 59.25 37.1917C60.19 37.8831 61.48 38.2289 63.12 38.2289C64.68 38.2289 66.08 37.8634 67.32 37.1324C68.56 36.4014 69.46 35.3247 70.02 33.9022ZM87.84 43.978H97.2V28.9236C97.2 25.881 97.99 23.6387 99.57 22.1965C101.15 20.7542 103.22 20.0331 105.78 20.0331C106.14 20.0331 106.48 20.043 106.8 20.0627C107.12 20.0825 107.48 20.1121 107.88 20.1517V11.6168C104.84 11.6168 102.26 12.1997 100.14 13.3653C98.782 14.1119 97.662 15.0815 96.78 16.274V12.091H87.84V43.978ZM133.5 43.978H142.26V25.7823C142.26 20.9222 140.9 17.3462 138.18 15.0545C135.46 12.7627 131.64 11.6168 126.72 11.6168C124.16 11.6168 121.64 11.9527 119.16 12.6244C116.68 13.2961 114.56 14.2445 112.8 15.4694L116.16 21.9297C117.32 21.0209 118.73 20.2998 120.39 19.7664C122.05 19.233 123.74 18.9663 125.46 18.9663C127.98 18.9663 129.85 19.5194 131.07 20.6258C132.29 21.7322 132.9 23.2732 132.9 25.2488H125.46C122.18 25.2488 119.52 25.6538 117.48 26.4639C115.44 27.2739 113.95 28.3901 113.01 29.8126C112.07 31.2351 111.6 32.8946 111.6 34.7912C111.6 36.6088 112.08 38.2486 113.04 39.7106C114 41.1726 115.38 42.3284 117.18 43.1779C118.98 44.0274 121.14 44.4522 123.66 44.4522C126.5 44.4522 128.82 43.9188 130.62 42.8519C131.835 42.1316 132.795 41.1862 133.5 40.0157V43.978ZM132.9 33.9022V30.6424H126.48C124.28 30.6424 122.77 30.998 121.95 31.7092C121.13 32.4205 120.72 33.3095 120.72 34.3764C120.72 35.5617 121.19 36.5002 122.13 37.1917C123.07 37.8831 124.36 38.2289 126 38.2289C127.56 38.2289 128.96 37.8634 130.2 37.1324C131.44 36.4014 132.34 35.3247 132.9 33.9022ZM150.72 43.978H160.08V27.9752C160.08 26.0786 160.38 24.5178 160.98 23.2929C161.58 22.068 162.42 21.1494 163.5 20.5369C164.58 19.9245 165.8 19.6182 167.16 19.6182C169.12 19.6182 170.63 20.2307 171.69 21.4556C172.75 22.6805 173.28 24.5771 173.28 27.1455V43.978H182.64V27.9752C182.64 26.0786 182.94 24.5178 183.54 23.2929C184.14 22.068 184.98 21.1494 186.06 20.5369C187.14 19.9245 188.36 19.6182 189.72 19.6182C191.68 19.6182 193.2 20.2307 194.28 21.4556C195.36 22.6805 195.9 24.5771 195.9 27.1455V43.978H205.26V25.723C205.26 22.4829 204.69 19.8257 203.55 17.7512C202.41 15.6768 200.85 14.1358 198.87 13.1282C196.89 12.1206 194.62 11.6168 192.06 11.6168C188.98 11.6168 186.25 12.3478 183.87 13.8098C182.515 14.6419 181.371 15.6403 180.438 16.8051C179.687 15.6031 178.731 14.6145 177.57 13.8394C175.35 12.3577 172.76 11.6168 169.8 11.6168C167.16 11.6168 164.81 12.1799 162.75 13.306C161.564 13.9542 160.534 14.7758 159.66 15.7709V12.091H150.72V43.978ZM225.42 42.6741C227.46 43.8595 229.9 44.4522 232.74 44.4522C235.78 44.4522 238.51 43.7706 240.93 42.4074C243.35 41.0442 245.27 39.1377 246.69 36.6879C248.11 34.2381 248.82 31.3536 248.82 28.0345C248.82 24.6759 248.11 21.7717 246.69 19.3219C245.27 16.8721 243.35 14.9754 240.93 13.632C238.51 12.2886 235.78 11.6168 232.74 11.6168C230.02 11.6168 227.64 12.2095 225.6 13.3949C224.64 13.9525 223.78 14.6456 223.02 15.4742V0H213.66V43.978H222.6V40.2878C223.407 41.2553 224.347 42.0508 225.42 42.6741ZM235.29 35.7988C234.07 36.5101 232.68 36.8657 231.12 36.8657C229.56 36.8657 228.16 36.5101 226.92 35.7988C225.68 35.0876 224.7 34.0701 223.98 32.7464C223.26 31.4228 222.9 29.8521 222.9 28.0345C222.9 26.1774 223.26 24.5969 223.98 23.2929C224.7 21.989 225.68 20.9814 226.92 20.2702C228.16 19.559 229.56 19.2033 231.12 19.2033C232.68 19.2033 234.07 19.559 235.29 20.2702C236.51 20.9814 237.49 21.989 238.23 23.2929C238.97 24.5969 239.34 26.1774 239.34 28.0345C239.34 29.8521 238.97 31.4228 238.23 32.7464C237.49 34.0701 236.51 35.0876 235.29 35.7988ZM255.06 43.978H264.42V28.2123C264.42 26.2367 264.75 24.6166 265.41 23.3522C266.07 22.0878 266.99 21.1494 268.17 20.5369C269.35 19.9245 270.68 19.6182 272.16 19.6182C274.24 19.6182 275.85 20.2307 276.99 21.4556C278.13 22.6805 278.7 24.5771 278.7 27.1455V43.978H288.06V25.723C288.06 22.4829 287.48 19.8257 286.32 17.7512C285.16 15.6768 283.57 14.1358 281.55 13.1282C279.53 12.1206 277.24 11.6168 274.68 11.6168C271.92 11.6168 269.46 12.1898 267.3 13.3357C266.214 13.912 265.254 14.6134 264.42 15.4397V0H255.06V43.978Z" fill="url(#paint0_linear_1_17)"/>
<path d="M36.18 35.0876H33.1718L36.9 43.978H47.1L28.32 2.48932H18.72L9.36 23.2337L0 43.978H9.96L13.7027 35.0876H9.36L11.94 27.7974H16.7717L23.4563 11.9191L21.54 7.34943H25.38L23.4563 11.9191L30.1148 27.7974H33.54L36.18 35.0876Z" fill="url(#paint1_linear_1_17)"/>
</g>
<defs>
<linearGradient id="paint0_linear_1_17" x1="0" y1="22.2261" x2="288.06" y2="22.2261" gradientUnits="userSpaceOnUse">
<stop offset="0.485577" stop-color="#7F94F2"/>
<stop offset="1" stop-color="#7B88C5" stop-opacity="0.78"/>
</linearGradient>
<linearGradient id="paint1_linear_1_17" x1="0" y1="22.2261" x2="288.06" y2="22.2261" gradientUnits="userSpaceOnUse">
<stop offset="0.485577" stop-color="#7F94F2"/>
<stop offset="1" stop-color="#7B88C5" stop-opacity="0.78"/>
</linearGradient>
<clipPath id="clip0_1_17">
<rect width="288.06" height="44.4522" fill="white"/>
</clipPath>
</defs>
</svg>
